  0
SECTION
  2
HEADER
  9
$ACADVER
  1
AC1009
  9
$EXTMIN
 10
0.0
 20
0.0
 30
0.0
  9
$EXTMAX
 10
1000.0
 20
1000.0
 30
0.0
  9
$FILLMODE
 70
 0
  9
$SPLFRAME
 70
 1
  0
ENDSEC
  0
SECTION
  2
TABLES
  0
TABLE
  2
LAYER
 70
1
  0
LAYER
  2
0
 70
     0
 62
     7
  6
CONTINUOUS
  0
ENDTAB
  0
ENDSEC
  0
SECTION
  2
ENTITIES
  0
LINE
  8
0
 62
     0
 10
0.0950846
 20
91.627
 30
0.0
 11
243.746
 21
91.627
 31
0.0
  0
LINE
  8
0
 62
     0
 10
243.746
 20
91.627
 30
0.0
 11
243.746
 21
0.377582
 31
0.0
  0
LINE
  8
0
 62
     0
 10
243.746
 20
0.377582
 30
0.0
 11
0.0950846
 21
0.377582
 31
0.0
  0
LINE
  8
0
 62
     0
 10
0.0950846
 20
0.377582
 30
0.0
 11
0.0950846
 21
91.627
 31
0.0
  0
LINE
  8
0
 62
     0
 10
229.22
 20
14.9021
 30
0.0
 11
243.219
 21
14.9021
 31
0.0
  0
LINE
  8
0
 62
     0
 10
243.219
 20
14.9021
 30
0.0
 11
243.219
 21
0.902614
 31
0.0
  0
LINE
  8
0
 62
     0
 10
243.219
 20
0.902614
 30
0.0
 11
229.22
 21
0.902614
 31
0.0
  0
LINE
  8
0
 62
     0
 10
229.22
 20
0.902614
 30
0.0
 11
229.22
 21
14.9021
 31
0.0
  0
LINE
  8
0
 62
     0
 10
210.17
 20
14.9021
 30
0.0
 11
224.169
 21
14.9021
 31
0.0
  0
LINE
  8
0
 62
     0
 10
224.169
 20
14.9021
 30
0.0
 11
224.169
 21
0.902614
 31
0.0
  0
LINE
  8
0
 62
     0
 10
224.169
 20
0.902614
 30
0.0
 11
210.17
 21
0.902614
 31
0.0
  0
LINE
  8
0
 62
     0
 10
210.17
 20
0.902614
 30
0.0
 11
210.17
 21
14.9021
 31
0.0
  0
LINE
  8
0
 62
     0
 10
191.12
 20
14.9021
 30
0.0
 11
205.119
 21
14.9021
 31
0.0
  0
LINE
  8
0
 62
     0
 10
205.119
 20
14.9021
 30
0.0
 11
205.119
 21
0.902614
 31
0.0
  0
LINE
  8
0
 62
     0
 10
205.119
 20
0.902614
 30
0.0
 11
191.12
 21
0.902614
 31
0.0
  0
LINE
  8
0
 62
     0
 10
191.12
 20
0.902614
 30
0.0
 11
191.12
 21
14.9021
 31
0.0
  0
LINE
  8
0
 62
     0
 10
172.07
 20
14.9021
 30
0.0
 11
186.069
 21
14.9021
 31
0.0
  0
LINE
  8
0
 62
     0
 10
186.069
 20
14.9021
 30
0.0
 11
186.069
 21
0.902614
 31
0.0
  0
LINE
  8
0
 62
     0
 10
186.069
 20
0.902614
 30
0.0
 11
172.07
 21
0.902614
 31
0.0
  0
LINE
  8
0
 62
     0
 10
172.07
 20
0.902614
 30
0.0
 11
172.07
 21
14.9021
 31
0.0
  0
LINE
  8
0
 62
     0
 10
153.02
 20
14.9021
 30
0.0
 11
167.019
 21
14.9021
 31
0.0
  0
LINE
  8
0
 62
     0
 10
167.019
 20
14.9021
 30
0.0
 11
167.019
 21
0.902614
 31
0.0
  0
LINE
  8
0
 62
     0
 10
167.019
 20
0.902614
 30
0.0
 11
153.02
 21
0.902614
 31
0.0
  0
LINE
  8
0
 62
     0
 10
153.02
 20
0.902614
 30
0.0
 11
153.02
 21
14.9021
 31
0.0
  0
LINE
  8
0
 62
     0
 10
133.97
 20
14.9021
 30
0.0
 11
147.969
 21
14.9021
 31
0.0
  0
LINE
  8
0
 62
     0
 10
147.969
 20
14.9021
 30
0.0
 11
147.969
 21
0.902614
 31
0.0
  0
LINE
  8
0
 62
     0
 10
147.969
 20
0.902614
 30
0.0
 11
133.97
 21
0.902614
 31
0.0
  0
LINE
  8
0
 62
     0
 10
133.97
 20
0.902614
 30
0.0
 11
133.97
 21
14.9021
 31
0.0
  0
LINE
  8
0
 62
     0
 10
114.919
 20
14.9021
 30
0.0
 11
128.919
 21
14.9021
 31
0.0
  0
LINE
  8
0
 62
     0
 10
128.919
 20
14.9021
 30
0.0
 11
128.919
 21
0.902614
 31
0.0
  0
LINE
  8
0
 62
     0
 10
128.919
 20
0.902614
 30
0.0
 11
114.919
 21
0.902614
 31
0.0
  0
LINE
  8
0
 62
     0
 10
114.919
 20
0.902614
 30
0.0
 11
114.919
 21
14.9021
 31
0.0
  0
LINE
  8
0
 62
     0
 10
95.8688
 20
14.9021
 30
0.0
 11
109.868
 21
14.9021
 31
0.0
  0
LINE
  8
0
 62
     0
 10
109.868
 20
14.9021
 30
0.0
 11
109.868
 21
0.902614
 31
0.0
  0
LINE
  8
0
 62
     0
 10
109.868
 20
0.902614
 30
0.0
 11
95.8688
 21
0.902614
 31
0.0
  0
LINE
  8
0
 62
     0
 10
95.8688
 20
0.902614
 30
0.0
 11
95.8688
 21
14.9021
 31
0.0
  0
LINE
  8
0
 62
     0
 10
76.8202
 20
14.9021
 30
0.0
 11
90.8195
 21
14.9021
 31
0.0
  0
LINE
  8
0
 62
     0
 10
90.8195
 20
14.9021
 30
0.0
 11
90.8195
 21
0.902614
 31
0.0
  0
LINE
  8
0
 62
     0
 10
90.8195
 20
0.902614
 30
0.0
 11
76.8202
 21
0.902614
 31
0.0
  0
LINE
  8
0
 62
     0
 10
76.8202
 20
0.902614
 30
0.0
 11
76.8202
 21
14.9021
 31
0.0
  0
LINE
  8
0
 62
     0
 10
57.7702
 20
14.9021
 30
0.0
 11
71.7695
 21
14.9021
 31
0.0
  0
LINE
  8
0
 62
     0
 10
71.7695
 20
14.9021
 30
0.0
 11
71.7695
 21
0.902614
 31
0.0
  0
LINE
  8
0
 62
     0
 10
71.7695
 20
0.902614
 30
0.0
 11
57.7702
 21
0.902614
 31
0.0
  0
LINE
  8
0
 62
     0
 10
57.7702
 20
0.902614
 30
0.0
 11
57.7702
 21
14.9021
 31
0.0
  0
LINE
  8
0
 62
     0
 10
38.7202
 20
14.9021
 30
0.0
 11
52.7195
 21
14.9021
 31
0.0
  0
LINE
  8
0
 62
     0
 10
52.7195
 20
14.9021
 30
0.0
 11
52.7195
 21
0.902614
 31
0.0
  0
LINE
  8
0
 62
     0
 10
52.7195
 20
0.902614
 30
0.0
 11
38.7202
 21
0.902614
 31
0.0
  0
LINE
  8
0
 62
     0
 10
38.7202
 20
0.902614
 30
0.0
 11
38.7202
 21
14.9021
 31
0.0
  0
LINE
  8
0
 62
     0
 10
19.6701
 20
14.9021
 30
0.0
 11
33.6696
 21
14.9021
 31
0.0
  0
LINE
  8
0
 62
     0
 10
33.6696
 20
14.9021
 30
0.0
 11
33.6696
 21
0.902614
 31
0.0
  0
LINE
  8
0
 62
     0
 10
33.6696
 20
0.902614
 30
0.0
 11
19.6701
 21
0.902614
 31
0.0
  0
LINE
  8
0
 62
     0
 10
19.6701
 20
0.902614
 30
0.0
 11
19.6701
 21
14.9021
 31
0.0
  0
LINE
  8
0
 62
     0
 10
0.620116
 20
14.9021
 30
0.0
 11
14.6196
 21
14.9021
 31
0.0
  0
LINE
  8
0
 62
     0
 10
14.6196
 20
14.9021
 30
0.0
 11
14.6196
 21
0.902614
 31
0.0
  0
LINE
  8
0
 62
     0
 10
14.6196
 20
0.902614
 30
0.0
 11
0.620116
 21
0.902614
 31
0.0
  0
LINE
  8
0
 62
     0
 10
0.620116
 20
0.902614
 30
0.0
 11
0.620116
 21
14.9021
 31
0.0
  0
LINE
  8
0
 62
     0
 10
229.22
 20
33.9521
 30
0.0
 11
243.219
 21
33.9521
 31
0.0
  0
LINE
  8
0
 62
     0
 10
243.219
 20
33.9521
 30
0.0
 11
243.219
 21
19.9526
 31
0.0
  0
LINE
  8
0
 62
     0
 10
243.219
 20
19.9526
 30
0.0
 11
229.22
 21
19.9526
 31
0.0
  0
LINE
  8
0
 62
     0
 10
229.22
 20
19.9526
 30
0.0
 11
229.22
 21
33.9521
 31
0.0
  0
LINE
  8
0
 62
     0
 10
210.17
 20
33.9521
 30
0.0
 11
224.169
 21
33.9521
 31
0.0
  0
LINE
  8
0
 62
     0
 10
224.169
 20
33.9521
 30
0.0
 11
224.169
 21
19.9526
 31
0.0
  0
LINE
  8
0
 62
     0
 10
224.169
 20
19.9526
 30
0.0
 11
210.17
 21
19.9526
 31
0.0
  0
LINE
  8
0
 62
     0
 10
210.17
 20
19.9526
 30
0.0
 11
210.17
 21
33.9521
 31
0.0
  0
LINE
  8
0
 62
     0
 10
191.12
 20
33.9521
 30
0.0
 11
205.119
 21
33.9521
 31
0.0
  0
LINE
  8
0
 62
     0
 10
205.119
 20
33.9521
 30
0.0
 11
205.119
 21
19.9526
 31
0.0
  0
LINE
  8
0
 62
     0
 10
205.119
 20
19.9526
 30
0.0
 11
191.12
 21
19.9526
 31
0.0
  0
LINE
  8
0
 62
     0
 10
191.12
 20
19.9526
 30
0.0
 11
191.12
 21
33.9521
 31
0.0
  0
LINE
  8
0
 62
     0
 10
172.07
 20
33.9521
 30
0.0
 11
186.069
 21
33.9521
 31
0.0
  0
LINE
  8
0
 62
     0
 10
186.069
 20
33.9521
 30
0.0
 11
186.069
 21
19.9526
 31
0.0
  0
LINE
  8
0
 62
     0
 10
186.069
 20
19.9526
 30
0.0
 11
172.07
 21
19.9526
 31
0.0
  0
LINE
  8
0
 62
     0
 10
172.07
 20
19.9526
 30
0.0
 11
172.07
 21
33.9521
 31
0.0
  0
LINE
  8
0
 62
     0
 10
153.02
 20
33.9521
 30
0.0
 11
167.019
 21
33.9521
 31
0.0
  0
LINE
  8
0
 62
     0
 10
167.019
 20
33.9521
 30
0.0
 11
167.019
 21
19.9526
 31
0.0
  0
LINE
  8
0
 62
     0
 10
167.019
 20
19.9526
 30
0.0
 11
153.02
 21
19.9526
 31
0.0
  0
LINE
  8
0
 62
     0
 10
153.02
 20
19.9526
 30
0.0
 11
153.02
 21
33.9521
 31
0.0
  0
LINE
  8
0
 62
     0
 10
133.97
 20
33.9521
 30
0.0
 11
147.969
 21
33.9521
 31
0.0
  0
LINE
  8
0
 62
     0
 10
147.969
 20
33.9521
 30
0.0
 11
147.969
 21
19.9526
 31
0.0
  0
LINE
  8
0
 62
     0
 10
147.969
 20
19.9526
 30
0.0
 11
133.97
 21
19.9526
 31
0.0
  0
LINE
  8
0
 62
     0
 10
133.97
 20
19.9526
 30
0.0
 11
133.97
 21
33.9521
 31
0.0
  0
LINE
  8
0
 62
     0
 10
114.919
 20
33.9521
 30
0.0
 11
128.919
 21
33.9521
 31
0.0
  0
LINE
  8
0
 62
     0
 10
128.919
 20
33.9521
 30
0.0
 11
128.919
 21
19.9526
 31
0.0
  0
LINE
  8
0
 62
     0
 10
128.919
 20
19.9526
 30
0.0
 11
114.919
 21
19.9526
 31
0.0
  0
LINE
  8
0
 62
     0
 10
114.919
 20
19.9526
 30
0.0
 11
114.919
 21
33.9521
 31
0.0
  0
LINE
  8
0
 62
     0
 10
95.8688
 20
33.9521
 30
0.0
 11
109.868
 21
33.9521
 31
0.0
  0
LINE
  8
0
 62
     0
 10
109.868
 20
33.9521
 30
0.0
 11
109.868
 21
19.9526
 31
0.0
  0
LINE
  8
0
 62
     0
 10
109.868
 20
19.9526
 30
0.0
 11
95.8688
 21
19.9526
 31
0.0
  0
LINE
  8
0
 62
     0
 10
95.8688
 20
19.9526
 30
0.0
 11
95.8688
 21
33.9521
 31
0.0
  0
LINE
  8
0
 62
     0
 10
76.8202
 20
33.9521
 30
0.0
 11
90.8195
 21
33.9521
 31
0.0
  0
LINE
  8
0
 62
     0
 10
90.8195
 20
33.9521
 30
0.0
 11
90.8195
 21
19.9526
 31
0.0
  0
LINE
  8
0
 62
     0
 10
90.8195
 20
19.9526
 30
0.0
 11
76.8202
 21
19.9526
 31
0.0
  0
LINE
  8
0
 62
     0
 10
76.8202
 20
19.9526
 30
0.0
 11
76.8202
 21
33.9521
 31
0.0
  0
LINE
  8
0
 62
     0
 10
57.7702
 20
33.9521
 30
0.0
 11
71.7695
 21
33.9521
 31
0.0
  0
LINE
  8
0
 62
     0
 10
71.7695
 20
33.9521
 30
0.0
 11
71.7695
 21
19.9526
 31
0.0
  0
LINE
  8
0
 62
     0
 10
71.7695
 20
19.9526
 30
0.0
 11
57.7702
 21
19.9526
 31
0.0
  0
LINE
  8
0
 62
     0
 10
57.7702
 20
19.9526
 30
0.0
 11
57.7702
 21
33.9521
 31
0.0
  0
LINE
  8
0
 62
     0
 10
38.7202
 20
33.9521
 30
0.0
 11
52.7195
 21
33.9521
 31
0.0
  0
LINE
  8
0
 62
     0
 10
52.7195
 20
33.9521
 30
0.0
 11
52.7195
 21
19.9526
 31
0.0
  0
LINE
  8
0
 62
     0
 10
52.7195
 20
19.9526
 30
0.0
 11
38.7202
 21
19.9526
 31
0.0
  0
LINE
  8
0
 62
     0
 10
38.7202
 20
19.9526
 30
0.0
 11
38.7202
 21
33.9521
 31
0.0
  0
LINE
  8
0
 62
     0
 10
19.6701
 20
33.9521
 30
0.0
 11
33.6696
 21
33.9521
 31
0.0
  0
LINE
  8
0
 62
     0
 10
33.6696
 20
33.9521
 30
0.0
 11
33.6696
 21
19.9526
 31
0.0
  0
LINE
  8
0
 62
     0
 10
33.6696
 20
19.9526
 30
0.0
 11
19.6701
 21
19.9526
 31
0.0
  0
LINE
  8
0
 62
     0
 10
19.6701
 20
19.9526
 30
0.0
 11
19.6701
 21
33.9521
 31
0.0
  0
LINE
  8
0
 62
     0
 10
0.620116
 20
33.9521
 30
0.0
 11
14.6196
 21
33.9521
 31
0.0
  0
LINE
  8
0
 62
     0
 10
14.6196
 20
33.9521
 30
0.0
 11
14.6196
 21
19.9526
 31
0.0
  0
LINE
  8
0
 62
     0
 10
14.6196
 20
19.9526
 30
0.0
 11
0.620116
 21
19.9526
 31
0.0
  0
LINE
  8
0
 62
     0
 10
0.620116
 20
19.9526
 30
0.0
 11
0.620116
 21
33.9521
 31
0.0
  0
LINE
  8
0
 62
     0
 10
229.22
 20
53.002
 30
0.0
 11
243.219
 21
53.002
 31
0.0
  0
LINE
  8
0
 62
     0
 10
243.219
 20
53.002
 30
0.0
 11
243.219
 21
39.0028
 31
0.0
  0
LINE
  8
0
 62
     0
 10
243.219
 20
39.0028
 30
0.0
 11
229.22
 21
39.0028
 31
0.0
  0
LINE
  8
0
 62
     0
 10
229.22
 20
39.0028
 30
0.0
 11
229.22
 21
53.002
 31
0.0
  0
LINE
  8
0
 62
     0
 10
210.17
 20
53.002
 30
0.0
 11
224.169
 21
53.002
 31
0.0
  0
LINE
  8
0
 62
     0
 10
224.169
 20
53.002
 30
0.0
 11
224.169
 21
39.0028
 31
0.0
  0
LINE
  8
0
 62
     0
 10
224.169
 20
39.0028
 30
0.0
 11
210.17
 21
39.0028
 31
0.0
  0
LINE
  8
0
 62
     0
 10
210.17
 20
39.0028
 30
0.0
 11
210.17
 21
53.002
 31
0.0
  0
LINE
  8
0
 62
     0
 10
191.12
 20
53.002
 30
0.0
 11
205.119
 21
53.002
 31
0.0
  0
LINE
  8
0
 62
     0
 10
205.119
 20
53.002
 30
0.0
 11
205.119
 21
39.0028
 31
0.0
  0
LINE
  8
0
 62
     0
 10
205.119
 20
39.0028
 30
0.0
 11
191.12
 21
39.0028
 31
0.0
  0
LINE
  8
0
 62
     0
 10
191.12
 20
39.0028
 30
0.0
 11
191.12
 21
53.002
 31
0.0
  0
LINE
  8
0
 62
     0
 10
172.07
 20
53.002
 30
0.0
 11
186.069
 21
53.002
 31
0.0
  0
LINE
  8
0
 62
     0
 10
186.069
 20
53.002
 30
0.0
 11
186.069
 21
39.0028
 31
0.0
  0
LINE
  8
0
 62
     0
 10
186.069
 20
39.0028
 30
0.0
 11
172.07
 21
39.0028
 31
0.0
  0
LINE
  8
0
 62
     0
 10
172.07
 20
39.0028
 30
0.0
 11
172.07
 21
53.002
 31
0.0
  0
LINE
  8
0
 62
     0
 10
153.02
 20
53.002
 30
0.0
 11
167.019
 21
53.002
 31
0.0
  0
LINE
  8
0
 62
     0
 10
167.019
 20
53.002
 30
0.0
 11
167.019
 21
39.0028
 31
0.0
  0
LINE
  8
0
 62
     0
 10
167.019
 20
39.0028
 30
0.0
 11
153.02
 21
39.0028
 31
0.0
  0
LINE
  8
0
 62
     0
 10
153.02
 20
39.0028
 30
0.0
 11
153.02
 21
53.002
 31
0.0
  0
LINE
  8
0
 62
     0
 10
133.97
 20
53.002
 30
0.0
 11
147.969
 21
53.002
 31
0.0
  0
LINE
  8
0
 62
     0
 10
147.969
 20
53.002
 30
0.0
 11
147.969
 21
39.0028
 31
0.0
  0
LINE
  8
0
 62
     0
 10
147.969
 20
39.0028
 30
0.0
 11
133.97
 21
39.0028
 31
0.0
  0
LINE
  8
0
 62
     0
 10
133.97
 20
39.0028
 30
0.0
 11
133.97
 21
53.002
 31
0.0
  0
LINE
  8
0
 62
     0
 10
114.919
 20
53.002
 30
0.0
 11
128.919
 21
53.002
 31
0.0
  0
LINE
  8
0
 62
     0
 10
128.919
 20
53.002
 30
0.0
 11
128.919
 21
39.0028
 31
0.0
  0
LINE
  8
0
 62
     0
 10
128.919
 20
39.0028
 30
0.0
 11
114.919
 21
39.0028
 31
0.0
  0
LINE
  8
0
 62
     0
 10
114.919
 20
39.0028
 30
0.0
 11
114.919
 21
53.002
 31
0.0
  0
LINE
  8
0
 62
     0
 10
95.8688
 20
53.002
 30
0.0
 11
109.868
 21
53.002
 31
0.0
  0
LINE
  8
0
 62
     0
 10
109.868
 20
53.002
 30
0.0
 11
109.868
 21
39.0028
 31
0.0
  0
LINE
  8
0
 62
     0
 10
109.868
 20
39.0028
 30
0.0
 11
95.8688
 21
39.0028
 31
0.0
  0
LINE
  8
0
 62
     0
 10
95.8688
 20
39.0028
 30
0.0
 11
95.8688
 21
53.002
 31
0.0
  0
LINE
  8
0
 62
     0
 10
76.8202
 20
53.002
 30
0.0
 11
90.8195
 21
53.002
 31
0.0
  0
LINE
  8
0
 62
     0
 10
90.8195
 20
53.002
 30
0.0
 11
90.8195
 21
39.0028
 31
0.0
  0
LINE
  8
0
 62
     0
 10
90.8195
 20
39.0028
 30
0.0
 11
76.8202
 21
39.0028
 31
0.0
  0
LINE
  8
0
 62
     0
 10
76.8202
 20
39.0028
 30
0.0
 11
76.8202
 21
53.002
 31
0.0
  0
LINE
  8
0
 62
     0
 10
57.7702
 20
53.002
 30
0.0
 11
71.7695
 21
53.002
 31
0.0
  0
LINE
  8
0
 62
     0
 10
71.7695
 20
53.002
 30
0.0
 11
71.7695
 21
39.0028
 31
0.0
  0
LINE
  8
0
 62
     0
 10
71.7695
 20
39.0028
 30
0.0
 11
57.7702
 21
39.0028
 31
0.0
  0
LINE
  8
0
 62
     0
 10
57.7702
 20
39.0028
 30
0.0
 11
57.7702
 21
53.002
 31
0.0
  0
LINE
  8
0
 62
     0
 10
38.7202
 20
53.002
 30
0.0
 11
52.7195
 21
53.002
 31
0.0
  0
LINE
  8
0
 62
     0
 10
52.7195
 20
53.002
 30
0.0
 11
52.7195
 21
39.0028
 31
0.0
  0
LINE
  8
0
 62
     0
 10
52.7195
 20
39.0028
 30
0.0
 11
38.7202
 21
39.0028
 31
0.0
  0
LINE
  8
0
 62
     0
 10
38.7202
 20
39.0028
 30
0.0
 11
38.7202
 21
53.002
 31
0.0
  0
LINE
  8
0
 62
     0
 10
19.6701
 20
53.002
 30
0.0
 11
33.6696
 21
53.002
 31
0.0
  0
LINE
  8
0
 62
     0
 10
33.6696
 20
53.002
 30
0.0
 11
33.6696
 21
39.0028
 31
0.0
  0
LINE
  8
0
 62
     0
 10
33.6696
 20
39.0028
 30
0.0
 11
19.6701
 21
39.0028
 31
0.0
  0
LINE
  8
0
 62
     0
 10
19.6701
 20
39.0028
 30
0.0
 11
19.6701
 21
53.002
 31
0.0
  0
LINE
  8
0
 62
     0
 10
0.620116
 20
53.002
 30
0.0
 11
14.6196
 21
53.002
 31
0.0
  0
LINE
  8
0
 62
     0
 10
14.6196
 20
53.002
 30
0.0
 11
14.6196
 21
39.0028
 31
0.0
  0
LINE
  8
0
 62
     0
 10
14.6196
 20
39.0028
 30
0.0
 11
0.620116
 21
39.0028
 31
0.0
  0
LINE
  8
0
 62
     0
 10
0.620116
 20
39.0028
 30
0.0
 11
0.620116
 21
53.002
 31
0.0
  0
LINE
  8
0
 62
     0
 10
229.22
 20
72.052
 30
0.0
 11
243.219
 21
72.052
 31
0.0
  0
LINE
  8
0
 62
     0
 10
243.219
 20
72.052
 30
0.0
 11
243.219
 21
58.0528
 31
0.0
  0
LINE
  8
0
 62
     0
 10
243.219
 20
58.0528
 30
0.0
 11
229.22
 21
58.0528
 31
0.0
  0
LINE
  8
0
 62
     0
 10
229.22
 20
58.0528
 30
0.0
 11
229.22
 21
72.052
 31
0.0
  0
LINE
  8
0
 62
     0
 10
210.17
 20
72.052
 30
0.0
 11
224.169
 21
72.052
 31
0.0
  0
LINE
  8
0
 62
     0
 10
224.169
 20
72.052
 30
0.0
 11
224.169
 21
58.0528
 31
0.0
  0
LINE
  8
0
 62
     0
 10
224.169
 20
58.0528
 30
0.0
 11
210.17
 21
58.0528
 31
0.0
  0
LINE
  8
0
 62
     0
 10
210.17
 20
58.0528
 30
0.0
 11
210.17
 21
72.052
 31
0.0
  0
LINE
  8
0
 62
     0
 10
191.12
 20
72.052
 30
0.0
 11
205.119
 21
72.052
 31
0.0
  0
LINE
  8
0
 62
     0
 10
205.119
 20
72.052
 30
0.0
 11
205.119
 21
58.0528
 31
0.0
  0
LINE
  8
0
 62
     0
 10
205.119
 20
58.0528
 30
0.0
 11
191.12
 21
58.0528
 31
0.0
  0
LINE
  8
0
 62
     0
 10
191.12
 20
58.0528
 30
0.0
 11
191.12
 21
72.052
 31
0.0
  0
LINE
  8
0
 62
     0
 10
172.07
 20
72.052
 30
0.0
 11
186.069
 21
72.052
 31
0.0
  0
LINE
  8
0
 62
     0
 10
186.069
 20
72.052
 30
0.0
 11
186.069
 21
58.0528
 31
0.0
  0
LINE
  8
0
 62
     0
 10
186.069
 20
58.0528
 30
0.0
 11
172.07
 21
58.0528
 31
0.0
  0
LINE
  8
0
 62
     0
 10
172.07
 20
58.0528
 30
0.0
 11
172.07
 21
72.052
 31
0.0
  0
LINE
  8
0
 62
     0
 10
153.02
 20
72.052
 30
0.0
 11
167.019
 21
72.052
 31
0.0
  0
LINE
  8
0
 62
     0
 10
167.019
 20
72.052
 30
0.0
 11
167.019
 21
58.0528
 31
0.0
  0
LINE
  8
0
 62
     0
 10
167.019
 20
58.0528
 30
0.0
 11
153.02
 21
58.0528
 31
0.0
  0
LINE
  8
0
 62
     0
 10
153.02
 20
58.0528
 30
0.0
 11
153.02
 21
72.052
 31
0.0
  0
LINE
  8
0
 62
     0
 10
133.97
 20
72.052
 30
0.0
 11
147.969
 21
72.052
 31
0.0
  0
LINE
  8
0
 62
     0
 10
147.969
 20
72.052
 30
0.0
 11
147.969
 21
58.0528
 31
0.0
  0
LINE
  8
0
 62
     0
 10
147.969
 20
58.0528
 30
0.0
 11
133.97
 21
58.0528
 31
0.0
  0
LINE
  8
0
 62
     0
 10
133.97
 20
58.0528
 30
0.0
 11
133.97
 21
72.052
 31
0.0
  0
LINE
  8
0
 62
     0
 10
114.919
 20
72.052
 30
0.0
 11
128.919
 21
72.052
 31
0.0
  0
LINE
  8
0
 62
     0
 10
128.919
 20
72.052
 30
0.0
 11
128.919
 21
58.0528
 31
0.0
  0
LINE
  8
0
 62
     0
 10
128.919
 20
58.0528
 30
0.0
 11
114.919
 21
58.0528
 31
0.0
  0
LINE
  8
0
 62
     0
 10
114.919
 20
58.0528
 30
0.0
 11
114.919
 21
72.052
 31
0.0
  0
LINE
  8
0
 62
     0
 10
95.8688
 20
72.052
 30
0.0
 11
109.868
 21
72.052
 31
0.0
  0
LINE
  8
0
 62
     0
 10
109.868
 20
72.052
 30
0.0
 11
109.868
 21
58.0528
 31
0.0
  0
LINE
  8
0
 62
     0
 10
109.868
 20
58.0528
 30
0.0
 11
95.8688
 21
58.0528
 31
0.0
  0
LINE
  8
0
 62
     0
 10
95.8688
 20
58.0528
 30
0.0
 11
95.8688
 21
72.052
 31
0.0
  0
LINE
  8
0
 62
     0
 10
76.8202
 20
72.052
 30
0.0
 11
90.8195
 21
72.052
 31
0.0
  0
LINE
  8
0
 62
     0
 10
90.8195
 20
72.052
 30
0.0
 11
90.8195
 21
58.0528
 31
0.0
  0
LINE
  8
0
 62
     0
 10
90.8195
 20
58.0528
 30
0.0
 11
76.8202
 21
58.0528
 31
0.0
  0
LINE
  8
0
 62
     0
 10
76.8202
 20
58.0528
 30
0.0
 11
76.8202
 21
72.052
 31
0.0
  0
LINE
  8
0
 62
     0
 10
57.7702
 20
72.052
 30
0.0
 11
71.7695
 21
72.052
 31
0.0
  0
LINE
  8
0
 62
     0
 10
71.7695
 20
72.052
 30
0.0
 11
71.7695
 21
58.0528
 31
0.0
  0
LINE
  8
0
 62
     0
 10
71.7695
 20
58.0528
 30
0.0
 11
57.7702
 21
58.0528
 31
0.0
  0
LINE
  8
0
 62
     0
 10
57.7702
 20
58.0528
 30
0.0
 11
57.7702
 21
72.052
 31
0.0
  0
LINE
  8
0
 62
     0
 10
38.7202
 20
72.052
 30
0.0
 11
52.7195
 21
72.052
 31
0.0
  0
LINE
  8
0
 62
     0
 10
52.7195
 20
72.052
 30
0.0
 11
52.7195
 21
58.0528
 31
0.0
  0
LINE
  8
0
 62
     0
 10
52.7195
 20
58.0528
 30
0.0
 11
38.7202
 21
58.0528
 31
0.0
  0
LINE
  8
0
 62
     0
 10
38.7202
 20
58.0528
 30
0.0
 11
38.7202
 21
72.052
 31
0.0
  0
LINE
  8
0
 62
     0
 10
19.6701
 20
72.052
 30
0.0
 11
33.6696
 21
72.052
 31
0.0
  0
LINE
  8
0
 62
     0
 10
33.6696
 20
72.052
 30
0.0
 11
33.6696
 21
58.0528
 31
0.0
  0
LINE
  8
0
 62
     0
 10
33.6696
 20
58.0528
 30
0.0
 11
19.6701
 21
58.0528
 31
0.0
  0
LINE
  8
0
 62
     0
 10
19.6701
 20
58.0528
 30
0.0
 11
19.6701
 21
72.052
 31
0.0
  0
LINE
  8
0
 62
     0
 10
0.620116
 20
72.052
 30
0.0
 11
14.6196
 21
72.052
 31
0.0
  0
LINE
  8
0
 62
     0
 10
14.6196
 20
72.052
 30
0.0
 11
14.6196
 21
58.0528
 31
0.0
  0
LINE
  8
0
 62
     0
 10
14.6196
 20
58.0528
 30
0.0
 11
0.620116
 21
58.0528
 31
0.0
  0
LINE
  8
0
 62
     0
 10
0.620116
 20
58.0528
 30
0.0
 11
0.620116
 21
72.052
 31
0.0
  0
LINE
  8
0
 62
     0
 10
229.22
 20
91.102
 30
0.0
 11
243.219
 21
91.102
 31
0.0
  0
LINE
  8
0
 62
     0
 10
243.219
 20
91.102
 30
0.0
 11
243.219
 21
77.1028
 31
0.0
  0
LINE
  8
0
 62
     0
 10
243.219
 20
77.1028
 30
0.0
 11
229.22
 21
77.1028
 31
0.0
  0
LINE
  8
0
 62
     0
 10
229.22
 20
77.1028
 30
0.0
 11
229.22
 21
91.102
 31
0.0
  0
LINE
  8
0
 62
     0
 10
210.17
 20
91.102
 30
0.0
 11
224.169
 21
91.102
 31
0.0
  0
LINE
  8
0
 62
     0
 10
224.169
 20
91.102
 30
0.0
 11
224.169
 21
77.1028
 31
0.0
  0
LINE
  8
0
 62
     0
 10
224.169
 20
77.1028
 30
0.0
 11
210.17
 21
77.1028
 31
0.0
  0
LINE
  8
0
 62
     0
 10
210.17
 20
77.1028
 30
0.0
 11
210.17
 21
91.102
 31
0.0
  0
LINE
  8
0
 62
     0
 10
191.12
 20
91.102
 30
0.0
 11
205.119
 21
91.102
 31
0.0
  0
LINE
  8
0
 62
     0
 10
205.119
 20
91.102
 30
0.0
 11
205.119
 21
77.1028
 31
0.0
  0
LINE
  8
0
 62
     0
 10
205.119
 20
77.1028
 30
0.0
 11
191.12
 21
77.1028
 31
0.0
  0
LINE
  8
0
 62
     0
 10
191.12
 20
77.1028
 30
0.0
 11
191.12
 21
91.102
 31
0.0
  0
LINE
  8
0
 62
     0
 10
172.07
 20
91.102
 30
0.0
 11
186.069
 21
91.102
 31
0.0
  0
LINE
  8
0
 62
     0
 10
186.069
 20
91.102
 30
0.0
 11
186.069
 21
77.1028
 31
0.0
  0
LINE
  8
0
 62
     0
 10
186.069
 20
77.1028
 30
0.0
 11
172.07
 21
77.1028
 31
0.0
  0
LINE
  8
0
 62
     0
 10
172.07
 20
77.1028
 30
0.0
 11
172.07
 21
91.102
 31
0.0
  0
LINE
  8
0
 62
     0
 10
153.02
 20
91.102
 30
0.0
 11
167.019
 21
91.102
 31
0.0
  0
LINE
  8
0
 62
     0
 10
167.019
 20
91.102
 30
0.0
 11
167.019
 21
77.1028
 31
0.0
  0
LINE
  8
0
 62
     0
 10
167.019
 20
77.1028
 30
0.0
 11
153.02
 21
77.1028
 31
0.0
  0
LINE
  8
0
 62
     0
 10
153.02
 20
77.1028
 30
0.0
 11
153.02
 21
91.102
 31
0.0
  0
LINE
  8
0
 62
     0
 10
133.97
 20
91.102
 30
0.0
 11
147.969
 21
91.102
 31
0.0
  0
LINE
  8
0
 62
     0
 10
147.969
 20
91.102
 30
0.0
 11
147.969
 21
77.1028
 31
0.0
  0
LINE
  8
0
 62
     0
 10
147.969
 20
77.1028
 30
0.0
 11
133.97
 21
77.1028
 31
0.0
  0
LINE
  8
0
 62
     0
 10
133.97
 20
77.1028
 30
0.0
 11
133.97
 21
91.102
 31
0.0
  0
LINE
  8
0
 62
     0
 10
114.919
 20
91.102
 30
0.0
 11
128.919
 21
91.102
 31
0.0
  0
LINE
  8
0
 62
     0
 10
128.919
 20
91.102
 30
0.0
 11
128.919
 21
77.1028
 31
0.0
  0
LINE
  8
0
 62
     0
 10
128.919
 20
77.1028
 30
0.0
 11
114.919
 21
77.1028
 31
0.0
  0
LINE
  8
0
 62
     0
 10
114.919
 20
77.1028
 30
0.0
 11
114.919
 21
91.102
 31
0.0
  0
LINE
  8
0
 62
     0
 10
95.8688
 20
91.102
 30
0.0
 11
109.868
 21
91.102
 31
0.0
  0
LINE
  8
0
 62
     0
 10
109.868
 20
91.102
 30
0.0
 11
109.868
 21
77.1028
 31
0.0
  0
LINE
  8
0
 62
     0
 10
109.868
 20
77.1028
 30
0.0
 11
95.8688
 21
77.1028
 31
0.0
  0
LINE
  8
0
 62
     0
 10
95.8688
 20
77.1028
 30
0.0
 11
95.8688
 21
91.102
 31
0.0
  0
LINE
  8
0
 62
     0
 10
76.8202
 20
91.102
 30
0.0
 11
90.8195
 21
91.102
 31
0.0
  0
LINE
  8
0
 62
     0
 10
90.8195
 20
91.102
 30
0.0
 11
90.8195
 21
77.1028
 31
0.0
  0
LINE
  8
0
 62
     0
 10
90.8195
 20
77.1028
 30
0.0
 11
76.8202
 21
77.1028
 31
0.0
  0
LINE
  8
0
 62
     0
 10
76.8202
 20
77.1028
 30
0.0
 11
76.8202
 21
91.102
 31
0.0
  0
LINE
  8
0
 62
     0
 10
57.7702
 20
91.102
 30
0.0
 11
71.7695
 21
91.102
 31
0.0
  0
LINE
  8
0
 62
     0
 10
71.7695
 20
91.102
 30
0.0
 11
71.7695
 21
77.1028
 31
0.0
  0
LINE
  8
0
 62
     0
 10
71.7695
 20
77.1028
 30
0.0
 11
57.7702
 21
77.1028
 31
0.0
  0
LINE
  8
0
 62
     0
 10
57.7702
 20
77.1028
 30
0.0
 11
57.7702
 21
91.102
 31
0.0
  0
LINE
  8
0
 62
     0
 10
38.7202
 20
91.102
 30
0.0
 11
52.7195
 21
91.102
 31
0.0
  0
LINE
  8
0
 62
     0
 10
52.7195
 20
91.102
 30
0.0
 11
52.7195
 21
77.1028
 31
0.0
  0
LINE
  8
0
 62
     0
 10
52.7195
 20
77.1028
 30
0.0
 11
38.7202
 21
77.1028
 31
0.0
  0
LINE
  8
0
 62
     0
 10
38.7202
 20
77.1028
 30
0.0
 11
38.7202
 21
91.102
 31
0.0
  0
LINE
  8
0
 62
     0
 10
19.6701
 20
91.102
 30
0.0
 11
33.6696
 21
91.102
 31
0.0
  0
LINE
  8
0
 62
     0
 10
33.6696
 20
91.102
 30
0.0
 11
33.6696
 21
77.1028
 31
0.0
  0
LINE
  8
0
 62
     0
 10
33.6696
 20
77.1028
 30
0.0
 11
19.6701
 21
77.1028
 31
0.0
  0
LINE
  8
0
 62
     0
 10
19.6701
 20
77.1028
 30
0.0
 11
19.6701
 21
91.102
 31
0.0
  0
LINE
  8
0
 62
     0
 10
0.620116
 20
91.102
 30
0.0
 11
14.6196
 21
91.102
 31
0.0
  0
LINE
  8
0
 62
     0
 10
14.6196
 20
91.102
 30
0.0
 11
14.6196
 21
77.1028
 31
0.0
  0
LINE
  8
0
 62
     0
 10
14.6196
 20
77.1028
 30
0.0
 11
0.620116
 21
77.1028
 31
0.0
  0
LINE
  8
0
 62
     0
 10
0.620116
 20
77.1028
 30
0.0
 11
0.620116
 21
91.102
 31
0.0
  0
ENDSEC
  0
EOF
