<?xml version="1.0" encoding="UTF-8"?>
<svg xmlns="http://www.w3.org/2000/svg" xmlns:xlink="http://www.w3.org/1999/xlink"
     width="1381.7499999999998" height="525.625" viewBox="-5 -5 276.34999999999997 105.125">
<defs>
</defs>
<rect x="-5" y="-5" width="276.34999999999997" height="105.125" fill="midnightblue" rx="2.5" ry="2.5" />
<rect x="0.0" y="0.0" width="19.025" height="19.025" rx="2.5" ry="2.5" fill="none" stroke="deeppink" stroke-width="0.5" />
<rect x="19.025" y="0.0" width="19.025" height="19.025" rx="2.5" ry="2.5" fill="none" stroke="deeppink" stroke-width="0.5" />
<rect x="38.05" y="0.0" width="19.025" height="19.025" rx="2.5" ry="2.5" fill="none" stroke="deeppink" stroke-width="0.5" />
<rect x="57.074999999999996" y="0.0" width="19.025" height="19.025" rx="2.5" ry="2.5" fill="none" stroke="deeppink" stroke-width="0.5" />
<rect x="76.1" y="0.0" width="19.025" height="19.025" rx="2.5" ry="2.5" fill="none" stroke="deeppink" stroke-width="0.5" />
<rect x="95.125" y="0.0" width="19.025" height="19.025" rx="2.5" ry="2.5" fill="none" stroke="deeppink" stroke-width="0.5" />
<rect x="114.14999999999999" y="0.0" width="19.025" height="19.025" rx="2.5" ry="2.5" fill="none" stroke="deeppink" stroke-width="0.5" />
<rect x="133.17499999999998" y="0.0" width="19.025" height="19.025" rx="2.5" ry="2.5" fill="none" stroke="deeppink" stroke-width="0.5" />
<rect x="152.2" y="0.0" width="19.025" height="19.025" rx="2.5" ry="2.5" fill="none" stroke="deeppink" stroke-width="0.5" />
<rect x="171.225" y="0.0" width="19.025" height="19.025" rx="2.5" ry="2.5" fill="none" stroke="deeppink" stroke-width="0.5" />
<rect x="190.25" y="0.0" width="19.025" height="19.025" rx="2.5" ry="2.5" fill="none" stroke="deeppink" stroke-width="0.5" />
<rect x="209.27499999999998" y="0.0" width="19.025" height="19.025" rx="2.5" ry="2.5" fill="none" stroke="deeppink" stroke-width="0.5" />
<rect x="228.29999999999998" y="0.0" width="19.025" height="19.025" rx="2.5" ry="2.5" fill="none" stroke="deeppink" stroke-width="0.5" />
<rect x="247.325" y="0.0" width="19.025" height="19.025" rx="2.5" ry="2.5" fill="none" stroke="deeppink" stroke-width="0.5" />
<rect x="0.0" y="19.025" width="19.025" height="19.025" rx="2.5" ry="2.5" fill="none" stroke="deeppink" stroke-width="0.5" />
<rect x="19.025" y="19.025" width="19.025" height="19.025" rx="2.5" ry="2.5" fill="none" stroke="deeppink" stroke-width="0.5" />
<rect x="38.05" y="19.025" width="19.025" height="19.025" rx="2.5" ry="2.5" fill="none" stroke="deeppink" stroke-width="0.5" />
<rect x="57.074999999999996" y="19.025" width="19.025" height="19.025" rx="2.5" ry="2.5" fill="none" stroke="deeppink" stroke-width="0.5" />
<rect x="76.1" y="19.025" width="19.025" height="19.025" rx="2.5" ry="2.5" fill="none" stroke="deeppink" stroke-width="0.5" />
<rect x="95.125" y="19.025" width="19.025" height="19.025" rx="2.5" ry="2.5" fill="none" stroke="deeppink" stroke-width="0.5" />
<rect x="114.14999999999999" y="19.025" width="19.025" height="19.025" rx="2.5" ry="2.5" fill="none" stroke="deeppink" stroke-width="0.5" />
<rect x="133.17499999999998" y="19.025" width="19.025" height="19.025" rx="2.5" ry="2.5" fill="none" stroke="deeppink" stroke-width="0.5" />
<rect x="152.2" y="19.025" width="19.025" height="19.025" rx="2.5" ry="2.5" fill="none" stroke="deeppink" stroke-width="0.5" />
<rect x="171.225" y="19.025" width="19.025" height="19.025" rx="2.5" ry="2.5" fill="none" stroke="deeppink" stroke-width="0.5" />
<rect x="190.25" y="19.025" width="19.025" height="19.025" rx="2.5" ry="2.5" fill="none" stroke="deeppink" stroke-width="0.5" />
<rect x="209.27499999999998" y="19.025" width="19.025" height="19.025" rx="2.5" ry="2.5" fill="none" stroke="deeppink" stroke-width="0.5" />
<rect x="228.29999999999998" y="19.025" width="19.025" height="19.025" rx="2.5" ry="2.5" fill="none" stroke="deeppink" stroke-width="0.5" />
<rect x="0.0" y="38.05" width="19.025" height="19.025" rx="2.5" ry="2.5" fill="none" stroke="deeppink" stroke-width="0.5" />
<rect x="19.025" y="38.05" width="19.025" height="19.025" rx="2.5" ry="2.5" fill="none" stroke="deeppink" stroke-width="0.5" />
<rect x="38.05" y="38.05" width="19.025" height="19.025" rx="2.5" ry="2.5" fill="none" stroke="deeppink" stroke-width="0.5" />
<rect x="57.074999999999996" y="38.05" width="19.025" height="19.025" rx="2.5" ry="2.5" fill="none" stroke="deeppink" stroke-width="0.5" />
<rect x="76.1" y="38.05" width="19.025" height="19.025" rx="2.5" ry="2.5" fill="none" stroke="deeppink" stroke-width="0.5" />
<rect x="95.125" y="38.05" width="19.025" height="19.025" rx="2.5" ry="2.5" fill="none" stroke="deeppink" stroke-width="0.5" />
<rect x="114.14999999999999" y="38.05" width="19.025" height="19.025" rx="2.5" ry="2.5" fill="none" stroke="deeppink" stroke-width="0.5" />
<rect x="133.17499999999998" y="38.05" width="19.025" height="19.025" rx="2.5" ry="2.5" fill="none" stroke="deeppink" stroke-width="0.5" />
<rect x="152.2" y="38.05" width="19.025" height="19.025" rx="2.5" ry="2.5" fill="none" stroke="deeppink" stroke-width="0.5" />
<rect x="171.225" y="38.05" width="19.025" height="19.025" rx="2.5" ry="2.5" fill="none" stroke="deeppink" stroke-width="0.5" />
<rect x="190.25" y="38.05" width="19.025" height="19.025" rx="2.5" ry="2.5" fill="none" stroke="deeppink" stroke-width="0.5" />
<rect x="209.27499999999998" y="38.05" width="19.025" height="19.025" rx="2.5" ry="2.5" fill="none" stroke="deeppink" stroke-width="0.5" />
<rect x="228.29999999999998" y="38.05" width="19.025" height="19.025" rx="2.5" ry="2.5" fill="none" stroke="deeppink" stroke-width="0.5" />
<rect x="0.0" y="57.074999999999996" width="19.025" height="19.025" rx="2.5" ry="2.5" fill="none" stroke="deeppink" stroke-width="0.5" />
<rect x="19.025" y="57.074999999999996" width="19.025" height="19.025" rx="2.5" ry="2.5" fill="none" stroke="deeppink" stroke-width="0.5" />
<rect x="38.05" y="57.074999999999996" width="19.025" height="19.025" rx="2.5" ry="2.5" fill="none" stroke="deeppink" stroke-width="0.5" />
<rect x="57.074999999999996" y="57.074999999999996" width="19.025" height="19.025" rx="2.5" ry="2.5" fill="none" stroke="deeppink" stroke-width="0.5" />
<rect x="76.1" y="57.074999999999996" width="19.025" height="19.025" rx="2.5" ry="2.5" fill="none" stroke="deeppink" stroke-width="0.5" />
<rect x="95.125" y="57.074999999999996" width="19.025" height="19.025" rx="2.5" ry="2.5" fill="none" stroke="deeppink" stroke-width="0.5" />
<rect x="114.14999999999999" y="57.074999999999996" width="19.025" height="19.025" rx="2.5" ry="2.5" fill="none" stroke="deeppink" stroke-width="0.5" />
<rect x="133.17499999999998" y="57.074999999999996" width="19.025" height="19.025" rx="2.5" ry="2.5" fill="none" stroke="deeppink" stroke-width="0.5" />
<rect x="152.2" y="57.074999999999996" width="19.025" height="19.025" rx="2.5" ry="2.5" fill="none" stroke="deeppink" stroke-width="0.5" />
<rect x="171.225" y="57.074999999999996" width="19.025" height="19.025" rx="2.5" ry="2.5" fill="none" stroke="deeppink" stroke-width="0.5" />
<rect x="190.25" y="57.074999999999996" width="19.025" height="19.025" rx="2.5" ry="2.5" fill="none" stroke="deeppink" stroke-width="0.5" />
<rect x="209.27499999999998" y="57.074999999999996" width="19.025" height="19.025" rx="2.5" ry="2.5" fill="none" stroke="deeppink" stroke-width="0.5" />
<rect x="228.29999999999998" y="57.074999999999996" width="19.025" height="19.025" rx="2.5" ry="2.5" fill="none" stroke="deeppink" stroke-width="0.5" />
<rect x="0.0" y="76.1" width="19.025" height="19.025" rx="2.5" ry="2.5" fill="none" stroke="deeppink" stroke-width="0.5" />
<rect x="19.025" y="76.1" width="19.025" height="19.025" rx="2.5" ry="2.5" fill="none" stroke="deeppink" stroke-width="0.5" />
<rect x="38.05" y="76.1" width="19.025" height="19.025" rx="2.5" ry="2.5" fill="none" stroke="deeppink" stroke-width="0.5" />
<rect x="57.074999999999996" y="76.1" width="19.025" height="19.025" rx="2.5" ry="2.5" fill="none" stroke="deeppink" stroke-width="0.5" />
<rect x="76.1" y="76.1" width="19.025" height="19.025" rx="2.5" ry="2.5" fill="none" stroke="deeppink" stroke-width="0.5" />
<rect x="95.125" y="76.1" width="19.025" height="19.025" rx="2.5" ry="2.5" fill="none" stroke="deeppink" stroke-width="0.5" />
<rect x="114.14999999999999" y="76.1" width="19.025" height="19.025" rx="2.5" ry="2.5" fill="none" stroke="deeppink" stroke-width="0.5" />
<rect x="133.17499999999998" y="76.1" width="19.025" height="19.025" rx="2.5" ry="2.5" fill="none" stroke="deeppink" stroke-width="0.5" />
<rect x="152.2" y="76.1" width="19.025" height="19.025" rx="2.5" ry="2.5" fill="none" stroke="deeppink" stroke-width="0.5" />
<rect x="171.225" y="76.1" width="19.025" height="19.025" rx="2.5" ry="2.5" fill="none" stroke="deeppink" stroke-width="0.5" />
<rect x="190.25" y="76.1" width="19.025" height="19.025" rx="2.5" ry="2.5" fill="none" stroke="deeppink" stroke-width="0.5" />
<rect x="209.27499999999998" y="76.1" width="19.025" height="19.025" rx="2.5" ry="2.5" fill="none" stroke="deeppink" stroke-width="0.5" />
<rect x="228.29999999999998" y="76.1" width="19.025" height="19.025" rx="2.5" ry="2.5" fill="none" stroke="deeppink" stroke-width="0.5" />
<circle cx="4.512499999999999" cy="7.512499999999999" r="1.0" fill="mediumspringgreen" stroke-width="0.5" />
<circle cx="23.537499999999998" cy="7.512499999999999" r="1.0" fill="mediumspringgreen" stroke-width="0.5" />
<circle cx="42.5625" cy="7.512499999999999" r="1.0" fill="mediumspringgreen" stroke-width="0.5" />
<circle cx="61.58749999999999" cy="7.512499999999999" r="1.0" fill="mediumspringgreen" stroke-width="0.5" />
<circle cx="80.6125" cy="7.512499999999999" r="1.0" fill="mediumspringgreen" stroke-width="0.5" />
<circle cx="99.6375" cy="7.512499999999999" r="1.0" fill="mediumspringgreen" stroke-width="0.5" />
<circle cx="118.6625" cy="7.512499999999999" r="1.0" fill="mediumspringgreen" stroke-width="0.5" />
<circle cx="137.68749999999997" cy="7.512499999999999" r="1.0" fill="mediumspringgreen" stroke-width="0.5" />
<circle cx="156.71249999999998" cy="7.512499999999999" r="1.0" fill="mediumspringgreen" stroke-width="0.5" />
<circle cx="175.73749999999998" cy="7.512499999999999" r="1.0" fill="mediumspringgreen" stroke-width="0.5" />
<circle cx="194.7625" cy="7.512499999999999" r="1.0" fill="mediumspringgreen" stroke-width="0.5" />
<circle cx="213.78749999999997" cy="7.512499999999999" r="1.0" fill="mediumspringgreen" stroke-width="0.5" />
<circle cx="232.81249999999997" cy="7.512499999999999" r="1.0" fill="mediumspringgreen" stroke-width="0.5" />
<circle cx="251.83749999999998" cy="7.512499999999999" r="1.0" fill="mediumspringgreen" stroke-width="0.5" />
<circle cx="4.512499999999999" cy="26.537499999999998" r="1.0" fill="mediumspringgreen" stroke-width="0.5" />
<circle cx="23.537499999999998" cy="26.537499999999998" r="1.0" fill="mediumspringgreen" stroke-width="0.5" />
<circle cx="42.5625" cy="26.537499999999998" r="1.0" fill="mediumspringgreen" stroke-width="0.5" />
<circle cx="61.58749999999999" cy="26.537499999999998" r="1.0" fill="mediumspringgreen" stroke-width="0.5" />
<circle cx="80.6125" cy="26.537499999999998" r="1.0" fill="mediumspringgreen" stroke-width="0.5" />
<circle cx="99.6375" cy="26.537499999999998" r="1.0" fill="mediumspringgreen" stroke-width="0.5" />
<circle cx="118.6625" cy="26.537499999999998" r="1.0" fill="mediumspringgreen" stroke-width="0.5" />
<circle cx="137.68749999999997" cy="26.537499999999998" r="1.0" fill="mediumspringgreen" stroke-width="0.5" />
<circle cx="156.71249999999998" cy="26.537499999999998" r="1.0" fill="mediumspringgreen" stroke-width="0.5" />
<circle cx="175.73749999999998" cy="26.537499999999998" r="1.0" fill="mediumspringgreen" stroke-width="0.5" />
<circle cx="194.7625" cy="26.537499999999998" r="1.0" fill="mediumspringgreen" stroke-width="0.5" />
<circle cx="213.78749999999997" cy="26.537499999999998" r="1.0" fill="mediumspringgreen" stroke-width="0.5" />
<circle cx="232.81249999999997" cy="26.537499999999998" r="1.0" fill="mediumspringgreen" stroke-width="0.5" />
<circle cx="4.512499999999999" cy="45.5625" r="1.0" fill="mediumspringgreen" stroke-width="0.5" />
<circle cx="23.537499999999998" cy="45.5625" r="1.0" fill="mediumspringgreen" stroke-width="0.5" />
<circle cx="42.5625" cy="45.5625" r="1.0" fill="mediumspringgreen" stroke-width="0.5" />
<circle cx="61.58749999999999" cy="45.5625" r="1.0" fill="mediumspringgreen" stroke-width="0.5" />
<circle cx="80.6125" cy="45.5625" r="1.0" fill="mediumspringgreen" stroke-width="0.5" />
<circle cx="99.6375" cy="45.5625" r="1.0" fill="mediumspringgreen" stroke-width="0.5" />
<circle cx="118.6625" cy="45.5625" r="1.0" fill="mediumspringgreen" stroke-width="0.5" />
<circle cx="137.68749999999997" cy="45.5625" r="1.0" fill="mediumspringgreen" stroke-width="0.5" />
<circle cx="156.71249999999998" cy="45.5625" r="1.0" fill="mediumspringgreen" stroke-width="0.5" />
<circle cx="175.73749999999998" cy="45.5625" r="1.0" fill="mediumspringgreen" stroke-width="0.5" />
<circle cx="194.7625" cy="45.5625" r="1.0" fill="mediumspringgreen" stroke-width="0.5" />
<circle cx="213.78749999999997" cy="45.5625" r="1.0" fill="mediumspringgreen" stroke-width="0.5" />
<circle cx="232.81249999999997" cy="45.5625" r="1.0" fill="mediumspringgreen" stroke-width="0.5" />
<circle cx="4.512499999999999" cy="64.58749999999999" r="1.0" fill="mediumspringgreen" stroke-width="0.5" />
<circle cx="23.537499999999998" cy="64.58749999999999" r="1.0" fill="mediumspringgreen" stroke-width="0.5" />
<circle cx="42.5625" cy="64.58749999999999" r="1.0" fill="mediumspringgreen" stroke-width="0.5" />
<circle cx="61.58749999999999" cy="64.58749999999999" r="1.0" fill="mediumspringgreen" stroke-width="0.5" />
<circle cx="80.6125" cy="64.58749999999999" r="1.0" fill="mediumspringgreen" stroke-width="0.5" />
<circle cx="99.6375" cy="64.58749999999999" r="1.0" fill="mediumspringgreen" stroke-width="0.5" />
<circle cx="118.6625" cy="64.58749999999999" r="1.0" fill="mediumspringgreen" stroke-width="0.5" />
<circle cx="137.68749999999997" cy="64.58749999999999" r="1.0" fill="mediumspringgreen" stroke-width="0.5" />
<circle cx="156.71249999999998" cy="64.58749999999999" r="1.0" fill="mediumspringgreen" stroke-width="0.5" />
<circle cx="175.73749999999998" cy="64.58749999999999" r="1.0" fill="mediumspringgreen" stroke-width="0.5" />
<circle cx="194.7625" cy="64.58749999999999" r="1.0" fill="mediumspringgreen" stroke-width="0.5" />
<circle cx="213.78749999999997" cy="64.58749999999999" r="1.0" fill="mediumspringgreen" stroke-width="0.5" />
<circle cx="232.81249999999997" cy="64.58749999999999" r="1.0" fill="mediumspringgreen" stroke-width="0.5" />
<circle cx="4.512499999999999" cy="83.6125" r="1.0" fill="mediumspringgreen" stroke-width="0.5" />
<circle cx="23.537499999999998" cy="83.6125" r="1.0" fill="mediumspringgreen" stroke-width="0.5" />
<circle cx="42.5625" cy="83.6125" r="1.0" fill="mediumspringgreen" stroke-width="0.5" />
<circle cx="61.58749999999999" cy="83.6125" r="1.0" fill="mediumspringgreen" stroke-width="0.5" />
<circle cx="80.6125" cy="83.6125" r="1.0" fill="mediumspringgreen" stroke-width="0.5" />
<circle cx="99.6375" cy="83.6125" r="1.0" fill="mediumspringgreen" stroke-width="0.5" />
<circle cx="118.6625" cy="83.6125" r="1.0" fill="mediumspringgreen" stroke-width="0.5" />
<circle cx="137.68749999999997" cy="83.6125" r="1.0" fill="mediumspringgreen" stroke-width="0.5" />
<circle cx="156.71249999999998" cy="83.6125" r="1.0" fill="mediumspringgreen" stroke-width="0.5" />
<circle cx="175.73749999999998" cy="83.6125" r="1.0" fill="mediumspringgreen" stroke-width="0.5" />
<circle cx="194.7625" cy="83.6125" r="1.0" fill="mediumspringgreen" stroke-width="0.5" />
<circle cx="213.78749999999997" cy="83.6125" r="1.0" fill="mediumspringgreen" stroke-width="0.5" />
<circle cx="232.81249999999997" cy="83.6125" r="1.0" fill="mediumspringgreen" stroke-width="0.5" />
<circle cx="14.5125" cy="4.512499999999999" r="1.0" fill="orchid" stroke-width="0.5" />
<circle cx="33.537499999999994" cy="4.512499999999999" r="1.0" fill="orchid" stroke-width="0.5" />
<circle cx="52.5625" cy="4.512499999999999" r="1.0" fill="orchid" stroke-width="0.5" />
<circle cx="71.58749999999999" cy="4.512499999999999" r="1.0" fill="orchid" stroke-width="0.5" />
<circle cx="90.6125" cy="4.512499999999999" r="1.0" fill="orchid" stroke-width="0.5" />
<circle cx="109.6375" cy="4.512499999999999" r="1.0" fill="orchid" stroke-width="0.5" />
<circle cx="128.6625" cy="4.512499999999999" r="1.0" fill="orchid" stroke-width="0.5" />
<circle cx="147.68749999999997" cy="4.512499999999999" r="1.0" fill="orchid" stroke-width="0.5" />
<circle cx="166.71249999999998" cy="4.512499999999999" r="1.0" fill="orchid" stroke-width="0.5" />
<circle cx="185.73749999999998" cy="4.512499999999999" r="1.0" fill="orchid" stroke-width="0.5" />
<circle cx="204.7625" cy="4.512499999999999" r="1.0" fill="orchid" stroke-width="0.5" />
<circle cx="223.78749999999997" cy="4.512499999999999" r="1.0" fill="orchid" stroke-width="0.5" />
<circle cx="242.81249999999997" cy="4.512499999999999" r="1.0" fill="orchid" stroke-width="0.5" />
<circle cx="261.8375" cy="4.512499999999999" r="1.0" fill="orchid" stroke-width="0.5" />
<circle cx="14.5125" cy="23.537499999999998" r="1.0" fill="orchid" stroke-width="0.5" />
<circle cx="33.537499999999994" cy="23.537499999999998" r="1.0" fill="orchid" stroke-width="0.5" />
<circle cx="52.5625" cy="23.537499999999998" r="1.0" fill="orchid" stroke-width="0.5" />
<circle cx="71.58749999999999" cy="23.537499999999998" r="1.0" fill="orchid" stroke-width="0.5" />
<circle cx="90.6125" cy="23.537499999999998" r="1.0" fill="orchid" stroke-width="0.5" />
<circle cx="109.6375" cy="23.537499999999998" r="1.0" fill="orchid" stroke-width="0.5" />
<circle cx="128.6625" cy="23.537499999999998" r="1.0" fill="orchid" stroke-width="0.5" />
<circle cx="147.68749999999997" cy="23.537499999999998" r="1.0" fill="orchid" stroke-width="0.5" />
<circle cx="166.71249999999998" cy="23.537499999999998" r="1.0" fill="orchid" stroke-width="0.5" />
<circle cx="185.73749999999998" cy="23.537499999999998" r="1.0" fill="orchid" stroke-width="0.5" />
<circle cx="204.7625" cy="23.537499999999998" r="1.0" fill="orchid" stroke-width="0.5" />
<circle cx="223.78749999999997" cy="23.537499999999998" r="1.0" fill="orchid" stroke-width="0.5" />
<circle cx="242.81249999999997" cy="23.537499999999998" r="1.0" fill="orchid" stroke-width="0.5" />
<circle cx="14.5125" cy="42.5625" r="1.0" fill="orchid" stroke-width="0.5" />
<circle cx="33.537499999999994" cy="42.5625" r="1.0" fill="orchid" stroke-width="0.5" />
<circle cx="52.5625" cy="42.5625" r="1.0" fill="orchid" stroke-width="0.5" />
<circle cx="71.58749999999999" cy="42.5625" r="1.0" fill="orchid" stroke-width="0.5" />
<circle cx="90.6125" cy="42.5625" r="1.0" fill="orchid" stroke-width="0.5" />
<circle cx="109.6375" cy="42.5625" r="1.0" fill="orchid" stroke-width="0.5" />
<circle cx="128.6625" cy="42.5625" r="1.0" fill="orchid" stroke-width="0.5" />
<circle cx="147.68749999999997" cy="42.5625" r="1.0" fill="orchid" stroke-width="0.5" />
<circle cx="166.71249999999998" cy="42.5625" r="1.0" fill="orchid" stroke-width="0.5" />
<circle cx="185.73749999999998" cy="42.5625" r="1.0" fill="orchid" stroke-width="0.5" />
<circle cx="204.7625" cy="42.5625" r="1.0" fill="orchid" stroke-width="0.5" />
<circle cx="223.78749999999997" cy="42.5625" r="1.0" fill="orchid" stroke-width="0.5" />
<circle cx="242.81249999999997" cy="42.5625" r="1.0" fill="orchid" stroke-width="0.5" />
<circle cx="14.5125" cy="61.58749999999999" r="1.0" fill="orchid" stroke-width="0.5" />
<circle cx="33.537499999999994" cy="61.58749999999999" r="1.0" fill="orchid" stroke-width="0.5" />
<circle cx="52.5625" cy="61.58749999999999" r="1.0" fill="orchid" stroke-width="0.5" />
<circle cx="71.58749999999999" cy="61.58749999999999" r="1.0" fill="orchid" stroke-width="0.5" />
<circle cx="90.6125" cy="61.58749999999999" r="1.0" fill="orchid" stroke-width="0.5" />
<circle cx="109.6375" cy="61.58749999999999" r="1.0" fill="orchid" stroke-width="0.5" />
<circle cx="128.6625" cy="61.58749999999999" r="1.0" fill="orchid" stroke-width="0.5" />
<circle cx="147.68749999999997" cy="61.58749999999999" r="1.0" fill="orchid" stroke-width="0.5" />
<circle cx="166.71249999999998" cy="61.58749999999999" r="1.0" fill="orchid" stroke-width="0.5" />
<circle cx="185.73749999999998" cy="61.58749999999999" r="1.0" fill="orchid" stroke-width="0.5" />
<circle cx="204.7625" cy="61.58749999999999" r="1.0" fill="orchid" stroke-width="0.5" />
<circle cx="223.78749999999997" cy="61.58749999999999" r="1.0" fill="orchid" stroke-width="0.5" />
<circle cx="242.81249999999997" cy="61.58749999999999" r="1.0" fill="orchid" stroke-width="0.5" />
<circle cx="14.5125" cy="80.6125" r="1.0" fill="orchid" stroke-width="0.5" />
<circle cx="33.537499999999994" cy="80.6125" r="1.0" fill="orchid" stroke-width="0.5" />
<circle cx="52.5625" cy="80.6125" r="1.0" fill="orchid" stroke-width="0.5" />
<circle cx="71.58749999999999" cy="80.6125" r="1.0" fill="orchid" stroke-width="0.5" />
<circle cx="90.6125" cy="80.6125" r="1.0" fill="orchid" stroke-width="0.5" />
<circle cx="109.6375" cy="80.6125" r="1.0" fill="orchid" stroke-width="0.5" />
<circle cx="128.6625" cy="80.6125" r="1.0" fill="orchid" stroke-width="0.5" />
<circle cx="147.68749999999997" cy="80.6125" r="1.0" fill="orchid" stroke-width="0.5" />
<circle cx="166.71249999999998" cy="80.6125" r="1.0" fill="orchid" stroke-width="0.5" />
<circle cx="185.73749999999998" cy="80.6125" r="1.0" fill="orchid" stroke-width="0.5" />
<circle cx="204.7625" cy="80.6125" r="1.0" fill="orchid" stroke-width="0.5" />
<circle cx="223.78749999999997" cy="80.6125" r="1.0" fill="orchid" stroke-width="0.5" />
<circle cx="242.81249999999997" cy="80.6125" r="1.0" fill="orchid" stroke-width="0.5" />
<path d="M14.5125,4.512499999999999 L33.537499999999994,4.512499999999999 L52.5625,4.512499999999999 L71.58749999999999,4.512499999999999 L90.6125,4.512499999999999 L109.6375,4.512499999999999 L128.6625,4.512499999999999 L147.68749999999997,4.512499999999999 L166.71249999999998,4.512499999999999 L185.73749999999998,4.512499999999999 L204.7625,4.512499999999999 L223.78749999999997,4.512499999999999 L242.81249999999997,4.512499999999999 L261.8375,4.512499999999999" stroke="orangered" fill="none" stroke-width="0.5">
<title>row 0</title>
</path>
<path d="M14.5125,23.537499999999998 L33.537499999999994,23.537499999999998 L52.5625,23.537499999999998 L71.58749999999999,23.537499999999998 L90.6125,23.537499999999998 L109.6375,23.537499999999998 L128.6625,23.537499999999998 L147.68749999999997,23.537499999999998 L166.71249999999998,23.537499999999998 L185.73749999999998,23.537499999999998 L204.7625,23.537499999999998 L223.78749999999997,23.537499999999998 L242.81249999999997,23.537499999999998" stroke="orangered" fill="none" stroke-width="0.5">
<title>row 1</title>
</path>
<path d="M14.5125,42.5625 L33.537499999999994,42.5625 L52.5625,42.5625 L71.58749999999999,42.5625 L90.6125,42.5625 L109.6375,42.5625 L128.6625,42.5625 L147.68749999999997,42.5625 L166.71249999999998,42.5625 L185.73749999999998,42.5625 L204.7625,42.5625 L223.78749999999997,42.5625 L242.81249999999997,42.5625" stroke="orangered" fill="none" stroke-width="0.5">
<title>row 2</title>
</path>
<path d="M14.5125,61.58749999999999 L33.537499999999994,61.58749999999999 L52.5625,61.58749999999999 L71.58749999999999,61.58749999999999 L90.6125,61.58749999999999 L109.6375,61.58749999999999 L128.6625,61.58749999999999 L147.68749999999997,61.58749999999999 L166.71249999999998,61.58749999999999 L185.73749999999998,61.58749999999999 L204.7625,61.58749999999999 L223.78749999999997,61.58749999999999 L242.81249999999997,61.58749999999999" stroke="orangered" fill="none" stroke-width="0.5">
<title>row 3</title>
</path>
<path d="M14.5125,80.6125 L33.537499999999994,80.6125 L52.5625,80.6125 L71.58749999999999,80.6125 L90.6125,80.6125 L109.6375,80.6125 L128.6625,80.6125 L147.68749999999997,80.6125 L166.71249999999998,80.6125 L185.73749999999998,80.6125 L204.7625,80.6125 L223.78749999999997,80.6125 L242.81249999999997,80.6125" stroke="orangered" fill="none" stroke-width="0.5">
<title>row 4</title>
</path>
<path d="M4.512499999999999,7.512499999999999 L4.512499999999999,26.537499999999998 L4.512499999999999,45.5625 L4.512499999999999,64.58749999999999 L4.512499999999999,83.6125" stroke="lightseagreen" fill="none" stroke-width="0.5">
<title>column 0</title>
</path>
<path d="M23.537499999999998,7.512499999999999 L23.537499999999998,26.537499999999998 L23.537499999999998,45.5625 L23.537499999999998,64.58749999999999 L23.537499999999998,83.6125" stroke="lightseagreen" fill="none" stroke-width="0.5">
<title>column 1</title>
</path>
<path d="M42.5625,7.512499999999999 L42.5625,26.537499999999998 L42.5625,45.5625 L42.5625,64.58749999999999 L42.5625,83.6125" stroke="lightseagreen" fill="none" stroke-width="0.5">
<title>column 2</title>
</path>
<path d="M61.58749999999999,7.512499999999999 L61.58749999999999,26.537499999999998 L61.58749999999999,45.5625 L61.58749999999999,64.58749999999999 L61.58749999999999,83.6125" stroke="lightseagreen" fill="none" stroke-width="0.5">
<title>column 3</title>
</path>
<path d="M80.6125,7.512499999999999 L80.6125,26.537499999999998 L80.6125,45.5625 L80.6125,64.58749999999999 L80.6125,83.6125" stroke="lightseagreen" fill="none" stroke-width="0.5">
<title>column 4</title>
</path>
<path d="M99.6375,7.512499999999999 L99.6375,26.537499999999998 L99.6375,45.5625 L99.6375,64.58749999999999 L99.6375,83.6125" stroke="lightseagreen" fill="none" stroke-width="0.5">
<title>column 5</title>
</path>
<path d="M118.6625,7.512499999999999 L118.6625,26.537499999999998 L118.6625,45.5625 L118.6625,64.58749999999999 L118.6625,83.6125" stroke="lightseagreen" fill="none" stroke-width="0.5">
<title>column 6</title>
</path>
<path d="M137.68749999999997,7.512499999999999 L137.68749999999997,26.537499999999998 L137.68749999999997,45.5625 L137.68749999999997,64.58749999999999 L137.68749999999997,83.6125" stroke="lightseagreen" fill="none" stroke-width="0.5">
<title>column 7</title>
</path>
<path d="M156.71249999999998,7.512499999999999 L156.71249999999998,26.537499999999998 L156.71249999999998,45.5625 L156.71249999999998,64.58749999999999 L156.71249999999998,83.6125" stroke="lightseagreen" fill="none" stroke-width="0.5">
<title>column 8</title>
</path>
<path d="M175.73749999999998,7.512499999999999 L175.73749999999998,26.537499999999998 L175.73749999999998,45.5625 L175.73749999999998,64.58749999999999 L175.73749999999998,83.6125" stroke="lightseagreen" fill="none" stroke-width="0.5">
<title>column 9</title>
</path>
<path d="M194.7625,7.512499999999999 L194.7625,26.537499999999998 L194.7625,45.5625 L194.7625,64.58749999999999 L194.7625,83.6125" stroke="lightseagreen" fill="none" stroke-width="0.5">
<title>column 10</title>
</path>
<path d="M213.78749999999997,7.512499999999999 L213.78749999999997,26.537499999999998 L213.78749999999997,45.5625 L213.78749999999997,64.58749999999999 L213.78749999999997,83.6125" stroke="lightseagreen" fill="none" stroke-width="0.5">
<title>column 11</title>
</path>
<path d="M232.81249999999997,7.512499999999999 L232.81249999999997,26.537499999999998 L232.81249999999997,45.5625 L232.81249999999997,64.58749999999999 L232.81249999999997,83.6125" stroke="lightseagreen" fill="none" stroke-width="0.5">
<title>column 12</title>
</path>
<path d="M251.83749999999998,7.512499999999999" stroke="lightseagreen" fill="none" stroke-width="0.5">
<title>column 13</title>
</path>
<text x="9.5125" y="9.5125" font-size="6" fill="mediumspringgreen" text-anchor="middle" dominant-baseline="central">0A</text>
<text x="28.537499999999998" y="9.5125" font-size="6" fill="mediumspringgreen" text-anchor="middle" dominant-baseline="central">0B</text>
<text x="47.5625" y="9.5125" font-size="6" fill="mediumspringgreen" text-anchor="middle" dominant-baseline="central">0C</text>
<text x="66.58749999999999" y="9.5125" font-size="6" fill="mediumspringgreen" text-anchor="middle" dominant-baseline="central">0D</text>
<text x="85.6125" y="9.5125" font-size="6" fill="mediumspringgreen" text-anchor="middle" dominant-baseline="central">0E</text>
<text x="104.6375" y="9.5125" font-size="6" fill="mediumspringgreen" text-anchor="middle" dominant-baseline="central">0F</text>
<text x="123.6625" y="9.5125" font-size="6" fill="mediumspringgreen" text-anchor="middle" dominant-baseline="central">0G</text>
<text x="142.68749999999997" y="9.5125" font-size="6" fill="mediumspringgreen" text-anchor="middle" dominant-baseline="central">0H</text>
<text x="161.71249999999998" y="9.5125" font-size="6" fill="mediumspringgreen" text-anchor="middle" dominant-baseline="central">0I</text>
<text x="180.73749999999998" y="9.5125" font-size="6" fill="mediumspringgreen" text-anchor="middle" dominant-baseline="central">0J</text>
<text x="199.7625" y="9.5125" font-size="6" fill="mediumspringgreen" text-anchor="middle" dominant-baseline="central">0K</text>
<text x="218.78749999999997" y="9.5125" font-size="6" fill="mediumspringgreen" text-anchor="middle" dominant-baseline="central">0L</text>
<text x="237.81249999999997" y="9.5125" font-size="6" fill="mediumspringgreen" text-anchor="middle" dominant-baseline="central">0M</text>
<text x="256.8375" y="9.5125" font-size="6" fill="mediumspringgreen" text-anchor="middle" dominant-baseline="central">0N</text>
<text x="9.5125" y="28.537499999999998" font-size="6" fill="mediumspringgreen" text-anchor="middle" dominant-baseline="central">1A</text>
<text x="28.537499999999998" y="28.537499999999998" font-size="6" fill="mediumspringgreen" text-anchor="middle" dominant-baseline="central">1B</text>
<text x="47.5625" y="28.537499999999998" font-size="6" fill="mediumspringgreen" text-anchor="middle" dominant-baseline="central">1C</text>
<text x="66.58749999999999" y="28.537499999999998" font-size="6" fill="mediumspringgreen" text-anchor="middle" dominant-baseline="central">1D</text>
<text x="85.6125" y="28.537499999999998" font-size="6" fill="mediumspringgreen" text-anchor="middle" dominant-baseline="central">1E</text>
<text x="104.6375" y="28.537499999999998" font-size="6" fill="mediumspringgreen" text-anchor="middle" dominant-baseline="central">1F</text>
<text x="123.6625" y="28.537499999999998" font-size="6" fill="mediumspringgreen" text-anchor="middle" dominant-baseline="central">1G</text>
<text x="142.68749999999997" y="28.537499999999998" font-size="6" fill="mediumspringgreen" text-anchor="middle" dominant-baseline="central">1H</text>
<text x="161.71249999999998" y="28.537499999999998" font-size="6" fill="mediumspringgreen" text-anchor="middle" dominant-baseline="central">1I</text>
<text x="180.73749999999998" y="28.537499999999998" font-size="6" fill="mediumspringgreen" text-anchor="middle" dominant-baseline="central">1J</text>
<text x="199.7625" y="28.537499999999998" font-size="6" fill="mediumspringgreen" text-anchor="middle" dominant-baseline="central">1K</text>
<text x="218.78749999999997" y="28.537499999999998" font-size="6" fill="mediumspringgreen" text-anchor="middle" dominant-baseline="central">1L</text>
<text x="237.81249999999997" y="28.537499999999998" font-size="6" fill="mediumspringgreen" text-anchor="middle" dominant-baseline="central">1M</text>
<text x="9.5125" y="47.5625" font-size="6" fill="mediumspringgreen" text-anchor="middle" dominant-baseline="central">2A</text>
<text x="28.537499999999998" y="47.5625" font-size="6" fill="mediumspringgreen" text-anchor="middle" dominant-baseline="central">2B</text>
<text x="47.5625" y="47.5625" font-size="6" fill="mediumspringgreen" text-anchor="middle" dominant-baseline="central">2C</text>
<text x="66.58749999999999" y="47.5625" font-size="6" fill="mediumspringgreen" text-anchor="middle" dominant-baseline="central">2D</text>
<text x="85.6125" y="47.5625" font-size="6" fill="mediumspringgreen" text-anchor="middle" dominant-baseline="central">2E</text>
<text x="104.6375" y="47.5625" font-size="6" fill="mediumspringgreen" text-anchor="middle" dominant-baseline="central">2F</text>
<text x="123.6625" y="47.5625" font-size="6" fill="mediumspringgreen" text-anchor="middle" dominant-baseline="central">2G</text>
<text x="142.68749999999997" y="47.5625" font-size="6" fill="mediumspringgreen" text-anchor="middle" dominant-baseline="central">2H</text>
<text x="161.71249999999998" y="47.5625" font-size="6" fill="mediumspringgreen" text-anchor="middle" dominant-baseline="central">2I</text>
<text x="180.73749999999998" y="47.5625" font-size="6" fill="mediumspringgreen" text-anchor="middle" dominant-baseline="central">2J</text>
<text x="199.7625" y="47.5625" font-size="6" fill="mediumspringgreen" text-anchor="middle" dominant-baseline="central">2K</text>
<text x="218.78749999999997" y="47.5625" font-size="6" fill="mediumspringgreen" text-anchor="middle" dominant-baseline="central">2L</text>
<text x="237.81249999999997" y="47.5625" font-size="6" fill="mediumspringgreen" text-anchor="middle" dominant-baseline="central">2M</text>
<text x="9.5125" y="66.58749999999999" font-size="6" fill="mediumspringgreen" text-anchor="middle" dominant-baseline="central">3A</text>
<text x="28.537499999999998" y="66.58749999999999" font-size="6" fill="mediumspringgreen" text-anchor="middle" dominant-baseline="central">3B</text>
<text x="47.5625" y="66.58749999999999" font-size="6" fill="mediumspringgreen" text-anchor="middle" dominant-baseline="central">3C</text>
<text x="66.58749999999999" y="66.58749999999999" font-size="6" fill="mediumspringgreen" text-anchor="middle" dominant-baseline="central">3D</text>
<text x="85.6125" y="66.58749999999999" font-size="6" fill="mediumspringgreen" text-anchor="middle" dominant-baseline="central">3E</text>
<text x="104.6375" y="66.58749999999999" font-size="6" fill="mediumspringgreen" text-anchor="middle" dominant-baseline="central">3F</text>
<text x="123.6625" y="66.58749999999999" font-size="6" fill="mediumspringgreen" text-anchor="middle" dominant-baseline="central">3G</text>
<text x="142.68749999999997" y="66.58749999999999" font-size="6" fill="mediumspringgreen" text-anchor="middle" dominant-baseline="central">3H</text>
<text x="161.71249999999998" y="66.58749999999999" font-size="6" fill="mediumspringgreen" text-anchor="middle" dominant-baseline="central">3I</text>
<text x="180.73749999999998" y="66.58749999999999" font-size="6" fill="mediumspringgreen" text-anchor="middle" dominant-baseline="central">3J</text>
<text x="199.7625" y="66.58749999999999" font-size="6" fill="mediumspringgreen" text-anchor="middle" dominant-baseline="central">3K</text>
<text x="218.78749999999997" y="66.58749999999999" font-size="6" fill="mediumspringgreen" text-anchor="middle" dominant-baseline="central">3L</text>
<text x="237.81249999999997" y="66.58749999999999" font-size="6" fill="mediumspringgreen" text-anchor="middle" dominant-baseline="central">3M</text>
<text x="9.5125" y="85.6125" font-size="6" fill="mediumspringgreen" text-anchor="middle" dominant-baseline="central">4A</text>
<text x="28.537499999999998" y="85.6125" font-size="6" fill="mediumspringgreen" text-anchor="middle" dominant-baseline="central">4B</text>
<text x="47.5625" y="85.6125" font-size="6" fill="mediumspringgreen" text-anchor="middle" dominant-baseline="central">4C</text>
<text x="66.58749999999999" y="85.6125" font-size="6" fill="mediumspringgreen" text-anchor="middle" dominant-baseline="central">4D</text>
<text x="85.6125" y="85.6125" font-size="6" fill="mediumspringgreen" text-anchor="middle" dominant-baseline="central">4E</text>
<text x="104.6375" y="85.6125" font-size="6" fill="mediumspringgreen" text-anchor="middle" dominant-baseline="central">4F</text>
<text x="123.6625" y="85.6125" font-size="6" fill="mediumspringgreen" text-anchor="middle" dominant-baseline="central">4G</text>
<text x="142.68749999999997" y="85.6125" font-size="6" fill="mediumspringgreen" text-anchor="middle" dominant-baseline="central">4H</text>
<text x="161.71249999999998" y="85.6125" font-size="6" fill="mediumspringgreen" text-anchor="middle" dominant-baseline="central">4I</text>
<text x="180.73749999999998" y="85.6125" font-size="6" fill="mediumspringgreen" text-anchor="middle" dominant-baseline="central">4J</text>
<text x="199.7625" y="85.6125" font-size="6" fill="mediumspringgreen" text-anchor="middle" dominant-baseline="central">4K</text>
<text x="218.78749999999997" y="85.6125" font-size="6" fill="mediumspringgreen" text-anchor="middle" dominant-baseline="central">4L</text>
<text x="237.81249999999997" y="85.6125" font-size="6" fill="mediumspringgreen" text-anchor="middle" dominant-baseline="central">4M</text>
<circle cx="9.5125" cy="9.5125" r="5" fill="chartreuse" stroke="none" opacity="0.16" stroke-width="0.5">
<title>
  code 
matrix 0-0
       0-A
</title>
</circle>
<circle cx="28.537499999999998" cy="9.5125" r="5" fill="chartreuse" stroke="none" opacity="0.16" stroke-width="0.5">
<title>
  code 
matrix 0-1
       0-B
</title>
</circle>
<circle cx="47.5625" cy="9.5125" r="5" fill="chartreuse" stroke="none" opacity="0.16" stroke-width="0.5">
<title>
  code 
matrix 0-2
       0-C
</title>
</circle>
<circle cx="66.58749999999999" cy="9.5125" r="5" fill="chartreuse" stroke="none" opacity="0.16" stroke-width="0.5">
<title>
  code 
matrix 0-3
       0-D
</title>
</circle>
<circle cx="85.6125" cy="9.5125" r="5" fill="chartreuse" stroke="none" opacity="0.16" stroke-width="0.5">
<title>
  code 
matrix 0-4
       0-E
</title>
</circle>
<circle cx="104.6375" cy="9.5125" r="5" fill="chartreuse" stroke="none" opacity="0.16" stroke-width="0.5">
<title>
  code 
matrix 0-5
       0-F
</title>
</circle>
<circle cx="123.6625" cy="9.5125" r="5" fill="chartreuse" stroke="none" opacity="0.16" stroke-width="0.5">
<title>
  code 
matrix 0-6
       0-G
</title>
</circle>
<circle cx="142.68749999999997" cy="9.5125" r="5" fill="chartreuse" stroke="none" opacity="0.16" stroke-width="0.5">
<title>
  code 
matrix 0-7
       0-H
</title>
</circle>
<circle cx="161.71249999999998" cy="9.5125" r="5" fill="chartreuse" stroke="none" opacity="0.16" stroke-width="0.5">
<title>
  code 
matrix 0-8
       0-I
</title>
</circle>
<circle cx="180.73749999999998" cy="9.5125" r="5" fill="chartreuse" stroke="none" opacity="0.16" stroke-width="0.5">
<title>
  code 
matrix 0-9
       0-J
</title>
</circle>
<circle cx="199.7625" cy="9.5125" r="5" fill="chartreuse" stroke="none" opacity="0.16" stroke-width="0.5">
<title>
  code 
matrix 0-10
       0-K
</title>
</circle>
<circle cx="218.78749999999997" cy="9.5125" r="5" fill="chartreuse" stroke="none" opacity="0.16" stroke-width="0.5">
<title>
  code 
matrix 0-11
       0-L
</title>
</circle>
<circle cx="237.81249999999997" cy="9.5125" r="5" fill="chartreuse" stroke="none" opacity="0.16" stroke-width="0.5">
<title>
  code 
matrix 0-12
       0-M
</title>
</circle>
<circle cx="256.8375" cy="9.5125" r="5" fill="chartreuse" stroke="none" opacity="0.16" stroke-width="0.5">
<title>
  code 
matrix 0-13
       0-N
</title>
</circle>
<circle cx="9.5125" cy="28.537499999999998" r="5" fill="chartreuse" stroke="none" opacity="0.16" stroke-width="0.5">
<title>
  code 
matrix 1-0
       1-A
</title>
</circle>
<circle cx="28.537499999999998" cy="28.537499999999998" r="5" fill="chartreuse" stroke="none" opacity="0.16" stroke-width="0.5">
<title>
  code 
matrix 1-1
       1-B
</title>
</circle>
<circle cx="47.5625" cy="28.537499999999998" r="5" fill="chartreuse" stroke="none" opacity="0.16" stroke-width="0.5">
<title>
  code 
matrix 1-2
       1-C
</title>
</circle>
<circle cx="66.58749999999999" cy="28.537499999999998" r="5" fill="chartreuse" stroke="none" opacity="0.16" stroke-width="0.5">
<title>
  code 
matrix 1-3
       1-D
</title>
</circle>
<circle cx="85.6125" cy="28.537499999999998" r="5" fill="chartreuse" stroke="none" opacity="0.16" stroke-width="0.5">
<title>
  code 
matrix 1-4
       1-E
</title>
</circle>
<circle cx="104.6375" cy="28.537499999999998" r="5" fill="chartreuse" stroke="none" opacity="0.16" stroke-width="0.5">
<title>
  code 
matrix 1-5
       1-F
</title>
</circle>
<circle cx="123.6625" cy="28.537499999999998" r="5" fill="chartreuse" stroke="none" opacity="0.16" stroke-width="0.5">
<title>
  code 
matrix 1-6
       1-G
</title>
</circle>
<circle cx="142.68749999999997" cy="28.537499999999998" r="5" fill="chartreuse" stroke="none" opacity="0.16" stroke-width="0.5">
<title>
  code 
matrix 1-7
       1-H
</title>
</circle>
<circle cx="161.71249999999998" cy="28.537499999999998" r="5" fill="chartreuse" stroke="none" opacity="0.16" stroke-width="0.5">
<title>
  code 
matrix 1-8
       1-I
</title>
</circle>
<circle cx="180.73749999999998" cy="28.537499999999998" r="5" fill="chartreuse" stroke="none" opacity="0.16" stroke-width="0.5">
<title>
  code 
matrix 1-9
       1-J
</title>
</circle>
<circle cx="199.7625" cy="28.537499999999998" r="5" fill="chartreuse" stroke="none" opacity="0.16" stroke-width="0.5">
<title>
  code 
matrix 1-10
       1-K
</title>
</circle>
<circle cx="218.78749999999997" cy="28.537499999999998" r="5" fill="chartreuse" stroke="none" opacity="0.16" stroke-width="0.5">
<title>
  code 
matrix 1-11
       1-L
</title>
</circle>
<circle cx="237.81249999999997" cy="28.537499999999998" r="5" fill="chartreuse" stroke="none" opacity="0.16" stroke-width="0.5">
<title>
  code 
matrix 1-12
       1-M
</title>
</circle>
<circle cx="9.5125" cy="47.5625" r="5" fill="chartreuse" stroke="none" opacity="0.16" stroke-width="0.5">
<title>
  code 
matrix 2-0
       2-A
</title>
</circle>
<circle cx="28.537499999999998" cy="47.5625" r="5" fill="chartreuse" stroke="none" opacity="0.16" stroke-width="0.5">
<title>
  code 
matrix 2-1
       2-B
</title>
</circle>
<circle cx="47.5625" cy="47.5625" r="5" fill="chartreuse" stroke="none" opacity="0.16" stroke-width="0.5">
<title>
  code 
matrix 2-2
       2-C
</title>
</circle>
<circle cx="66.58749999999999" cy="47.5625" r="5" fill="chartreuse" stroke="none" opacity="0.16" stroke-width="0.5">
<title>
  code 
matrix 2-3
       2-D
</title>
</circle>
<circle cx="85.6125" cy="47.5625" r="5" fill="chartreuse" stroke="none" opacity="0.16" stroke-width="0.5">
<title>
  code 
matrix 2-4
       2-E
</title>
</circle>
<circle cx="104.6375" cy="47.5625" r="5" fill="chartreuse" stroke="none" opacity="0.16" stroke-width="0.5">
<title>
  code 
matrix 2-5
       2-F
</title>
</circle>
<circle cx="123.6625" cy="47.5625" r="5" fill="chartreuse" stroke="none" opacity="0.16" stroke-width="0.5">
<title>
  code 
matrix 2-6
       2-G
</title>
</circle>
<circle cx="142.68749999999997" cy="47.5625" r="5" fill="chartreuse" stroke="none" opacity="0.16" stroke-width="0.5">
<title>
  code 
matrix 2-7
       2-H
</title>
</circle>
<circle cx="161.71249999999998" cy="47.5625" r="5" fill="chartreuse" stroke="none" opacity="0.16" stroke-width="0.5">
<title>
  code 
matrix 2-8
       2-I
</title>
</circle>
<circle cx="180.73749999999998" cy="47.5625" r="5" fill="chartreuse" stroke="none" opacity="0.16" stroke-width="0.5">
<title>
  code 
matrix 2-9
       2-J
</title>
</circle>
<circle cx="199.7625" cy="47.5625" r="5" fill="chartreuse" stroke="none" opacity="0.16" stroke-width="0.5">
<title>
  code 
matrix 2-10
       2-K
</title>
</circle>
<circle cx="218.78749999999997" cy="47.5625" r="5" fill="chartreuse" stroke="none" opacity="0.16" stroke-width="0.5">
<title>
  code 
matrix 2-11
       2-L
</title>
</circle>
<circle cx="237.81249999999997" cy="47.5625" r="5" fill="chartreuse" stroke="none" opacity="0.16" stroke-width="0.5">
<title>
  code 
matrix 2-12
       2-M
</title>
</circle>
<circle cx="9.5125" cy="66.58749999999999" r="5" fill="chartreuse" stroke="none" opacity="0.16" stroke-width="0.5">
<title>
  code 
matrix 3-0
       3-A
</title>
</circle>
<circle cx="28.537499999999998" cy="66.58749999999999" r="5" fill="chartreuse" stroke="none" opacity="0.16" stroke-width="0.5">
<title>
  code 
matrix 3-1
       3-B
</title>
</circle>
<circle cx="47.5625" cy="66.58749999999999" r="5" fill="chartreuse" stroke="none" opacity="0.16" stroke-width="0.5">
<title>
  code 
matrix 3-2
       3-C
</title>
</circle>
<circle cx="66.58749999999999" cy="66.58749999999999" r="5" fill="chartreuse" stroke="none" opacity="0.16" stroke-width="0.5">
<title>
  code 
matrix 3-3
       3-D
</title>
</circle>
<circle cx="85.6125" cy="66.58749999999999" r="5" fill="chartreuse" stroke="none" opacity="0.16" stroke-width="0.5">
<title>
  code 
matrix 3-4
       3-E
</title>
</circle>
<circle cx="104.6375" cy="66.58749999999999" r="5" fill="chartreuse" stroke="none" opacity="0.16" stroke-width="0.5">
<title>
  code 
matrix 3-5
       3-F
</title>
</circle>
<circle cx="123.6625" cy="66.58749999999999" r="5" fill="chartreuse" stroke="none" opacity="0.16" stroke-width="0.5">
<title>
  code 
matrix 3-6
       3-G
</title>
</circle>
<circle cx="142.68749999999997" cy="66.58749999999999" r="5" fill="chartreuse" stroke="none" opacity="0.16" stroke-width="0.5">
<title>
  code 
matrix 3-7
       3-H
</title>
</circle>
<circle cx="161.71249999999998" cy="66.58749999999999" r="5" fill="chartreuse" stroke="none" opacity="0.16" stroke-width="0.5">
<title>
  code 
matrix 3-8
       3-I
</title>
</circle>
<circle cx="180.73749999999998" cy="66.58749999999999" r="5" fill="chartreuse" stroke="none" opacity="0.16" stroke-width="0.5">
<title>
  code 
matrix 3-9
       3-J
</title>
</circle>
<circle cx="199.7625" cy="66.58749999999999" r="5" fill="chartreuse" stroke="none" opacity="0.16" stroke-width="0.5">
<title>
  code 
matrix 3-10
       3-K
</title>
</circle>
<circle cx="218.78749999999997" cy="66.58749999999999" r="5" fill="chartreuse" stroke="none" opacity="0.16" stroke-width="0.5">
<title>
  code 
matrix 3-11
       3-L
</title>
</circle>
<circle cx="237.81249999999997" cy="66.58749999999999" r="5" fill="chartreuse" stroke="none" opacity="0.16" stroke-width="0.5">
<title>
  code 
matrix 3-12
       3-M
</title>
</circle>
<circle cx="9.5125" cy="85.6125" r="5" fill="chartreuse" stroke="none" opacity="0.16" stroke-width="0.5">
<title>
  code 
matrix 4-0
       4-A
</title>
</circle>
<circle cx="28.537499999999998" cy="85.6125" r="5" fill="chartreuse" stroke="none" opacity="0.16" stroke-width="0.5">
<title>
  code 
matrix 4-1
       4-B
</title>
</circle>
<circle cx="47.5625" cy="85.6125" r="5" fill="chartreuse" stroke="none" opacity="0.16" stroke-width="0.5">
<title>
  code 
matrix 4-2
       4-C
</title>
</circle>
<circle cx="66.58749999999999" cy="85.6125" r="5" fill="chartreuse" stroke="none" opacity="0.16" stroke-width="0.5">
<title>
  code 
matrix 4-3
       4-D
</title>
</circle>
<circle cx="85.6125" cy="85.6125" r="5" fill="chartreuse" stroke="none" opacity="0.16" stroke-width="0.5">
<title>
  code 
matrix 4-4
       4-E
</title>
</circle>
<circle cx="104.6375" cy="85.6125" r="5" fill="chartreuse" stroke="none" opacity="0.16" stroke-width="0.5">
<title>
  code 
matrix 4-5
       4-F
</title>
</circle>
<circle cx="123.6625" cy="85.6125" r="5" fill="chartreuse" stroke="none" opacity="0.16" stroke-width="0.5">
<title>
  code 
matrix 4-6
       4-G
</title>
</circle>
<circle cx="142.68749999999997" cy="85.6125" r="5" fill="chartreuse" stroke="none" opacity="0.16" stroke-width="0.5">
<title>
  code 
matrix 4-7
       4-H
</title>
</circle>
<circle cx="161.71249999999998" cy="85.6125" r="5" fill="chartreuse" stroke="none" opacity="0.16" stroke-width="0.5">
<title>
  code 
matrix 4-8
       4-I
</title>
</circle>
<circle cx="180.73749999999998" cy="85.6125" r="5" fill="chartreuse" stroke="none" opacity="0.16" stroke-width="0.5">
<title>
  code 
matrix 4-9
       4-J
</title>
</circle>
<circle cx="199.7625" cy="85.6125" r="5" fill="chartreuse" stroke="none" opacity="0.16" stroke-width="0.5">
<title>
  code 
matrix 4-10
       4-K
</title>
</circle>
<circle cx="218.78749999999997" cy="85.6125" r="5" fill="chartreuse" stroke="none" opacity="0.16" stroke-width="0.5">
<title>
  code 
matrix 4-11
       4-L
</title>
</circle>
<circle cx="237.81249999999997" cy="85.6125" r="5" fill="chartreuse" stroke="none" opacity="0.16" stroke-width="0.5">
<title>
  code 
matrix 4-12
       4-M
</title>
</circle>
</svg>